<?xml version="1.0" standalone="no"?>
<!DOCTYPE svg PUBLIC "-//W3C//DTD SVG 20010904//EN"
 "http://www.w3.org/TR/2001/REC-SVG-20010904/DTD/svg10.dtd">
<svg version="1.0" xmlns="http://www.w3.org/2000/svg"
 width="512.000000pt" height="512.000000pt" viewBox="0 0 512.000000 512.000000"
 preserveAspectRatio="xMidYMid meet">
<metadata>
Created by potrace 1.14, written by Peter Selinger 2001-2017
</metadata>
<g transform="translate(0.000000,512.000000) scale(0.100000,-0.100000)"
fill="#000000" stroke="none">
<path d="M966 3350 c-110 -39 -188 -108 -233 -205 -25 -54 -28 -71 -28 -165 0
-103 1 -108 39 -185 34 -68 58 -98 186 -224 169 -169 193 -207 193 -311 0 -78
-21 -128 -70 -169 -64 -53 -195 -71 -262 -37 -70 37 -90 157 -51 318 27 113
26 144 -5 164 -61 40 -169 -15 -240 -121 -96 -145 -108 -316 -32 -458 106
-201 407 -258 692 -132 194 86 312 241 323 424 10 178 -33 279 -180 424 -80
78 -96 98 -81 103 140 44 233 155 233 280 0 48 -20 135 -38 164 -30 48 -77 92
-127 118 -42 21 -66 26 -155 29 -87 3 -115 0 -164 -17z m189 -191 c22 -6 53
-23 68 -37 26 -24 28 -32 23 -75 -9 -83 -84 -217 -121 -217 -20 0 -123 127
-151 185 -13 28 -24 60 -24 72 0 27 44 60 96 72 54 12 63 12 109 0z"/>
<path d="M2053 3348 c-40 -10 -63 -47 -151 -246 -119 -271 -188 -511 -217
-761 -18 -152 -22 -462 -6 -510 15 -47 59 -91 91 -91 41 0 147 57 172 93 21
30 23 43 24 187 1 115 5 170 18 215 44 149 161 306 240 321 52 9 88 -5 105
-41 15 -31 12 -57 -35 -265 -20 -93 -24 -298 -6 -358 29 -95 116 -144 208
-117 47 14 205 93 257 129 44 30 47 31 47 11 0 -30 80 -104 138 -127 82 -32
259 -33 317 -1 45 24 98 71 136 122 l26 33 8 -38 c19 -103 75 -151 164 -141
55 6 261 108 312 154 l36 33 32 -49 c37 -58 104 -106 180 -128 89 -25 302 -14
410 22 191 65 331 205 361 363 10 57 0 102 -24 102 -8 0 -47 -32 -86 -71 -127
-126 -254 -189 -379 -189 -120 0 -194 49 -207 137 -9 58 -9 58 160 123 251 98
323 163 333 305 11 156 -122 249 -310 217 -184 -32 -324 -149 -418 -347 -38
-81 -69 -183 -69 -227 0 -16 -23 -46 -72 -94 -40 -39 -84 -79 -98 -88 -33 -22
-70 -21 -71 2 -4 54 7 139 43 322 61 317 57 437 -18 456 -37 10 -154 -12 -184
-34 -51 -37 -62 -76 -56 -193 9 -159 -28 -326 -105 -470 -46 -86 -89 -119
-156 -119 -44 0 -55 4 -73 27 -19 25 -21 36 -15 93 3 36 26 143 51 239 94 372
44 500 -172 436 -84 -25 -80 -13 -112 -288 l-29 -248 -110 -108 c-119 -117
-167 -147 -188 -118 -14 20 -10 48 28 203 39 155 50 234 45 325 -4 69 -9 91
-31 126 -35 55 -95 89 -184 104 -134 22 -249 -18 -344 -118 -28 -30 -53 -53
-55 -51 -2 2 4 33 12 68 9 40 37 104 71 163 106 186 130 279 98 380 -18 59
-63 122 -92 129 -10 3 -32 1 -50 -4z m2393 -773 c23 -35 4 -86 -49 -128 -52
-41 -148 -100 -154 -94 -7 8 27 128 47 168 40 77 122 106 156 54z"/>
</g>
</svg>
